<svg xmlns="http://www.w3.org/2000/svg" viewBox="0 0 86 26" style="enable-background:new 0 0 86 26" xml:space="preserve">
  <path d="M31.9 17.8h1.2c2.2 0 2.4-1.2 2.4-4.6 0-3.4-.2-4.6-2.4-4.6h-1.4v9.2h.2zm1.8-11.7c3.8 0 4.8 2 4.8 7s-1.2 7-4.8 7h-4.8v-14h4.8zm6.4 0h7.6v2.4h-4.6v2.8h4.2v2.4h-4.2v3.8h4.6V20h-7.6V6.1zm15.6 8.5-1.4-5.8-1.4 5.8h2.8zm.6 2.4h-4l-.8 3.2h-3l4-14.1h3.8L60 20.2h-3l-.7-3.2zM61 6.1h3v6l3.6-6h3l-4 6.4 4 7.6h-3.4l-3.4-6.8v6.8H61v-14zm10.8 0h2.8v14.1h-2.8V6.1zM79 11v9.2h-2.6V6.1H80l3.4 8.6V6.1H86v14.1h-3.2L79 11z"/>
  <g transform="translate(1 1)">
    <circle cx="12" cy="12" style="fill:#fff;stroke:#000;stroke-width:.2167" r="11.9"/>
    <path d="M5.8 5.8v8.4c0 3.4 2.8 6.2 6.2 6.2s6.2-2.8 6.2-6.2V5.8H5.8zm1 9.8.8-1.4.8 1.4H6.8zm2.6 0-1.2-2.2.6-1 1.8 3.2H9.4zm2.2 0-2.4-4.2.6-1 3 5.2h-1.2zm2.2 0-3.6-6 .6-1 4 6.9h-1v.1zm2.2 0-4.6-7.9.6-1 5.2 9-1.2-.1z"/>
  </g>
</svg>
